<mxfile host="app.diagrams.net" modified="2024-03-30T02:51:45.492Z" agent="Mozilla/5.0 (Windows NT 10.0; Win64; x64) AppleWebKit/537.36 (KHTML, like Gecko) Chrome/121.0.0.0 Safari/537.36 OPR/107.0.0.0" etag="MbKKrpqO5hRLBTJxTGPK" version="24.2.1" type="device">
  <diagram name="Page-1" id="13e1069c-82ec-6db2-03f1-153e76fe0fe0">
    <mxGraphModel dx="1393" dy="804" grid="1" gridSize="10" guides="1" tooltips="1" connect="1" arrows="1" fold="1" page="1" pageScale="1" pageWidth="1100" pageHeight="850" background="none" math="0" shadow="0">
      <root>
        <mxCell id="0" />
        <mxCell id="1" parent="0" />
        <mxCell id="7baba1c4bc27f4b0-2" value="Гость" style="shape=umlLifeline;perimeter=lifelinePerimeter;whiteSpace=wrap;html=1;container=1;collapsible=0;recursiveResize=0;outlineConnect=0;rounded=1;shadow=0;comic=0;labelBackgroundColor=none;strokeWidth=1;fontFamily=Verdana;fontSize=12;align=center;size=50;" parent="1" vertex="1">
          <mxGeometry x="240" y="70" width="100" height="410" as="geometry" />
        </mxCell>
        <mxCell id="ra7D6F-EsMwKTzDDRDKf-21" value="" style="html=1;points=[];perimeter=orthogonalPerimeter;rounded=0;shadow=0;comic=0;labelBackgroundColor=none;strokeWidth=1;fontFamily=Verdana;fontSize=12;align=center;" parent="7baba1c4bc27f4b0-2" vertex="1">
          <mxGeometry x="45" y="90" width="10" height="300" as="geometry" />
        </mxCell>
        <mxCell id="ra7D6F-EsMwKTzDDRDKf-7" value="" style="group" parent="1" vertex="1" connectable="0">
          <mxGeometry x="110" y="40" width="80" height="460" as="geometry" />
        </mxCell>
        <mxCell id="ra7D6F-EsMwKTzDDRDKf-5" value="" style="shape=umlLifeline;perimeter=lifelinePerimeter;whiteSpace=wrap;html=1;container=1;dropTarget=0;collapsible=0;recursiveResize=0;outlineConnect=0;portConstraint=eastwest;newEdgeStyle={&quot;edgeStyle&quot;:&quot;elbowEdgeStyle&quot;,&quot;elbow&quot;:&quot;vertical&quot;,&quot;curved&quot;:0,&quot;rounded&quot;:0};participant=umlActor;size=90;" parent="ra7D6F-EsMwKTzDDRDKf-7" vertex="1">
          <mxGeometry x="20" width="40" height="440" as="geometry" />
        </mxCell>
        <mxCell id="ra7D6F-EsMwKTzDDRDKf-6" value="Пользователь" style="text;align=center;fontStyle=0;verticalAlign=middle;spacingLeft=3;spacingRight=3;strokeColor=none;rotatable=0;points=[[0,0.5],[1,0.5]];portConstraint=eastwest;html=1;labelBackgroundColor=default;" parent="ra7D6F-EsMwKTzDDRDKf-7" vertex="1">
          <mxGeometry y="78.22222222222223" width="80" height="19.066666666666666" as="geometry" />
        </mxCell>
        <mxCell id="ra7D6F-EsMwKTzDDRDKf-8" value="Интерфейс" style="shape=umlLifeline;perimeter=lifelinePerimeter;whiteSpace=wrap;html=1;container=1;collapsible=0;recursiveResize=0;outlineConnect=0;rounded=1;shadow=0;comic=0;labelBackgroundColor=none;strokeWidth=1;fontFamily=Verdana;fontSize=12;align=center;size=50;" parent="1" vertex="1">
          <mxGeometry x="380" y="70" width="100" height="410" as="geometry" />
        </mxCell>
        <mxCell id="ra7D6F-EsMwKTzDDRDKf-22" value="" style="html=1;points=[];perimeter=orthogonalPerimeter;rounded=0;shadow=0;comic=0;labelBackgroundColor=none;strokeWidth=1;fontFamily=Verdana;fontSize=12;align=center;" parent="ra7D6F-EsMwKTzDDRDKf-8" vertex="1">
          <mxGeometry x="45" y="110" width="10" height="280" as="geometry" />
        </mxCell>
        <mxCell id="ra7D6F-EsMwKTzDDRDKf-11" value="Модуль проверки текстовых данных" style="shape=umlLifeline;perimeter=lifelinePerimeter;whiteSpace=wrap;html=1;container=1;collapsible=0;recursiveResize=0;outlineConnect=0;rounded=1;shadow=0;comic=0;labelBackgroundColor=none;strokeWidth=1;fontFamily=Verdana;fontSize=12;align=center;size=70;" parent="1" vertex="1">
          <mxGeometry x="520" y="70" width="100" height="410" as="geometry" />
        </mxCell>
        <mxCell id="ra7D6F-EsMwKTzDDRDKf-23" value="" style="html=1;points=[];perimeter=orthogonalPerimeter;rounded=0;shadow=0;comic=0;labelBackgroundColor=none;strokeWidth=1;fontFamily=Verdana;fontSize=12;align=center;" parent="ra7D6F-EsMwKTzDDRDKf-11" vertex="1">
          <mxGeometry x="45" y="130" width="10" height="240" as="geometry" />
        </mxCell>
        <mxCell id="ra7D6F-EsMwKTzDDRDKf-28" value="alternative" style="shape=umlFrame;whiteSpace=wrap;html=1;pointerEvents=0;width=70;height=30;container=1;recursiveResize=1;" parent="ra7D6F-EsMwKTzDDRDKf-11" vertex="1">
          <mxGeometry x="-480" y="220" width="550" height="170" as="geometry" />
        </mxCell>
        <mxCell id="ra7D6F-EsMwKTzDDRDKf-31" value="" style="line;strokeWidth=1;fillColor=none;align=left;verticalAlign=middle;spacingTop=-1;spacingLeft=3;spacingRight=3;rotatable=0;labelPosition=right;points=[];portConstraint=eastwest;strokeColor=default;dashed=1;perimeterSpacing=0;" parent="ra7D6F-EsMwKTzDDRDKf-28" vertex="1">
          <mxGeometry y="69.22923076923075" width="550" height="11.538461538461537" as="geometry" />
        </mxCell>
        <mxCell id="ra7D6F-EsMwKTzDDRDKf-32" value="Если данные&lt;br&gt;прошли&amp;nbsp;проверку" style="text;align=left;fontStyle=0;verticalAlign=middle;spacingLeft=3;spacingRight=3;strokeColor=none;rotatable=0;points=[[0,0.5],[1,0.5]];portConstraint=eastwest;html=1;" parent="ra7D6F-EsMwKTzDDRDKf-28" vertex="1">
          <mxGeometry y="34.61538461538461" width="86.27450980392156" height="29.999999999999996" as="geometry" />
        </mxCell>
        <mxCell id="ra7D6F-EsMwKTzDDRDKf-33" value="Иначе" style="text;align=left;fontStyle=0;verticalAlign=middle;spacingLeft=3;spacingRight=3;strokeColor=none;rotatable=0;points=[[0,0.5],[1,0.5]];portConstraint=eastwest;html=1;" parent="ra7D6F-EsMwKTzDDRDKf-28" vertex="1">
          <mxGeometry y="92.30769230769229" width="86.27450980392156" height="29.999999999999996" as="geometry" />
        </mxCell>
        <mxCell id="ra7D6F-EsMwKTzDDRDKf-34" value="Сохранение&lt;br&gt;данных" style="html=1;verticalAlign=bottom;endArrow=open;dashed=1;endSize=8;labelBackgroundColor=none;fontFamily=Verdana;fontSize=12;" parent="ra7D6F-EsMwKTzDDRDKf-28" edge="1">
          <mxGeometry relative="1" as="geometry">
            <mxPoint x="395" y="34.61538461538461" as="targetPoint" />
            <mxPoint x="525" y="34.61538461538461" as="sourcePoint" />
            <mxPoint as="offset" />
            <Array as="points">
              <mxPoint x="460" y="34.61538461538461" />
            </Array>
          </mxGeometry>
        </mxCell>
        <mxCell id="ra7D6F-EsMwKTzDDRDKf-13" value="База данных" style="shape=umlLifeline;perimeter=lifelinePerimeter;whiteSpace=wrap;html=1;container=1;collapsible=0;recursiveResize=0;outlineConnect=0;rounded=1;shadow=0;comic=0;labelBackgroundColor=none;strokeWidth=1;fontFamily=Verdana;fontSize=12;align=center;size=50;" parent="1" vertex="1">
          <mxGeometry x="660" y="70" width="100" height="410" as="geometry" />
        </mxCell>
        <mxCell id="ra7D6F-EsMwKTzDDRDKf-24" value="" style="html=1;points=[];perimeter=orthogonalPerimeter;rounded=0;shadow=0;comic=0;labelBackgroundColor=none;strokeWidth=1;fontFamily=Verdana;fontSize=12;align=center;" parent="ra7D6F-EsMwKTzDDRDKf-13" vertex="1">
          <mxGeometry x="45" y="150" width="10" height="60" as="geometry" />
        </mxCell>
        <mxCell id="ra7D6F-EsMwKTzDDRDKf-17" value="Отправка данных" style="html=1;verticalAlign=bottom;endArrow=block;labelBackgroundColor=none;fontFamily=Verdana;fontSize=12;edgeStyle=elbowEdgeStyle;elbow=vertical;" parent="1" source="ra7D6F-EsMwKTzDDRDKf-21" target="ra7D6F-EsMwKTzDDRDKf-22" edge="1">
          <mxGeometry relative="1" as="geometry">
            <mxPoint x="310" y="180.00000000000006" as="sourcePoint" />
            <Array as="points">
              <mxPoint x="360" y="180" />
            </Array>
            <mxPoint x="444.5" y="180.00000000000006" as="targetPoint" />
          </mxGeometry>
        </mxCell>
        <mxCell id="ra7D6F-EsMwKTzDDRDKf-19" value="Ввод&amp;nbsp;данных" style="html=1;verticalAlign=bottom;endArrow=block;labelBackgroundColor=none;fontFamily=Verdana;fontSize=12;edgeStyle=elbowEdgeStyle;elbow=vertical;" parent="1" source="ra7D6F-EsMwKTzDDRDKf-5" target="ra7D6F-EsMwKTzDDRDKf-21" edge="1">
          <mxGeometry relative="1" as="geometry">
            <mxPoint x="150" y="170" as="sourcePoint" />
            <Array as="points">
              <mxPoint x="220" y="160" />
            </Array>
            <mxPoint x="290" y="170" as="targetPoint" />
            <mxPoint as="offset" />
          </mxGeometry>
        </mxCell>
        <mxCell id="ra7D6F-EsMwKTzDDRDKf-20" value="Вызов функции и&lt;br&gt;передача данных" style="html=1;verticalAlign=bottom;endArrow=block;labelBackgroundColor=none;fontFamily=Verdana;fontSize=12;edgeStyle=elbowEdgeStyle;elbow=vertical;" parent="1" source="ra7D6F-EsMwKTzDDRDKf-22" target="ra7D6F-EsMwKTzDDRDKf-23" edge="1">
          <mxGeometry relative="1" as="geometry">
            <mxPoint x="430.0238095238094" y="279.9999999999999" as="sourcePoint" />
            <Array as="points">
              <mxPoint x="480" y="200" />
            </Array>
            <mxPoint x="570" y="280" as="targetPoint" />
          </mxGeometry>
        </mxCell>
        <mxCell id="ra7D6F-EsMwKTzDDRDKf-26" value="Запрос данных" style="html=1;verticalAlign=bottom;endArrow=block;labelBackgroundColor=none;fontFamily=Verdana;fontSize=12;edgeStyle=elbowEdgeStyle;elbow=vertical;" parent="1" source="ra7D6F-EsMwKTzDDRDKf-23" target="ra7D6F-EsMwKTzDDRDKf-24" edge="1">
          <mxGeometry relative="1" as="geometry">
            <mxPoint x="560" y="220" as="sourcePoint" />
            <Array as="points">
              <mxPoint x="630" y="220" />
            </Array>
            <mxPoint x="700" y="220" as="targetPoint" />
          </mxGeometry>
        </mxCell>
        <mxCell id="ra7D6F-EsMwKTzDDRDKf-27" value="Данные&lt;br&gt;о маске ввода" style="html=1;verticalAlign=bottom;endArrow=open;dashed=1;endSize=8;labelBackgroundColor=none;fontFamily=Verdana;fontSize=12;" parent="1" source="ra7D6F-EsMwKTzDDRDKf-24" target="ra7D6F-EsMwKTzDDRDKf-23" edge="1">
          <mxGeometry relative="1" as="geometry">
            <mxPoint x="590" y="250" as="targetPoint" />
            <mxPoint x="690" y="250" as="sourcePoint" />
            <Array as="points">
              <mxPoint x="640" y="280" />
            </Array>
          </mxGeometry>
        </mxCell>
        <mxCell id="ra7D6F-EsMwKTzDDRDKf-35" value="Данные не прошли&lt;br&gt;проверку" style="html=1;verticalAlign=bottom;endArrow=open;dashed=1;endSize=8;labelBackgroundColor=none;fontFamily=Verdana;fontSize=12;" parent="1" source="ra7D6F-EsMwKTzDDRDKf-23" target="ra7D6F-EsMwKTzDDRDKf-22" edge="1">
          <mxGeometry relative="1" as="geometry">
            <mxPoint x="430" y="404.18" as="targetPoint" />
            <mxPoint x="560" y="404.18" as="sourcePoint" />
            <mxPoint as="offset" />
            <Array as="points">
              <mxPoint x="495" y="400" />
            </Array>
          </mxGeometry>
        </mxCell>
        <mxCell id="ra7D6F-EsMwKTzDDRDKf-36" value="Запись данных" style="html=1;verticalAlign=bottom;endArrow=block;labelBackgroundColor=none;fontFamily=Verdana;fontSize=12;edgeStyle=elbowEdgeStyle;elbow=vertical;" parent="1" source="ra7D6F-EsMwKTzDDRDKf-22" target="ra7D6F-EsMwKTzDDRDKf-13" edge="1">
          <mxGeometry x="0.4936" relative="1" as="geometry">
            <mxPoint x="430" y="340" as="sourcePoint" />
            <Array as="points">
              <mxPoint x="570" y="350" />
            </Array>
            <mxPoint x="570" y="340" as="targetPoint" />
            <mxPoint as="offset" />
          </mxGeometry>
        </mxCell>
        <mxCell id="ra7D6F-EsMwKTzDDRDKf-37" value="Данные введены&lt;br&gt;неверно" style="html=1;verticalAlign=bottom;endArrow=open;endSize=8;labelBackgroundColor=none;fontFamily=Verdana;fontSize=12;" parent="1" source="ra7D6F-EsMwKTzDDRDKf-22" target="ra7D6F-EsMwKTzDDRDKf-21" edge="1">
          <mxGeometry relative="1" as="geometry">
            <mxPoint x="310" y="420" as="targetPoint" />
            <mxPoint x="410" y="420" as="sourcePoint" />
            <mxPoint as="offset" />
            <Array as="points">
              <mxPoint x="360" y="420" />
            </Array>
          </mxGeometry>
        </mxCell>
        <mxCell id="ra7D6F-EsMwKTzDDRDKf-38" value="Данные введены&lt;br&gt;неверно" style="html=1;verticalAlign=bottom;endArrow=open;endSize=8;labelBackgroundColor=none;fontFamily=Verdana;fontSize=12;" parent="1" source="ra7D6F-EsMwKTzDDRDKf-21" target="ra7D6F-EsMwKTzDDRDKf-5" edge="1">
          <mxGeometry relative="1" as="geometry">
            <mxPoint x="150" y="440" as="targetPoint" />
            <mxPoint x="280" y="440" as="sourcePoint" />
            <mxPoint as="offset" />
            <Array as="points">
              <mxPoint x="215" y="440" />
            </Array>
          </mxGeometry>
        </mxCell>
        <mxCell id="ujmmGsmacbDu9rMizDgE-1" value="Следующий&lt;br&gt;вопрос" style="html=1;verticalAlign=bottom;endArrow=open;endSize=8;labelBackgroundColor=none;fontFamily=Verdana;fontSize=12;" parent="1" source="ra7D6F-EsMwKTzDDRDKf-22" target="ra7D6F-EsMwKTzDDRDKf-21" edge="1">
          <mxGeometry relative="1" as="geometry">
            <mxPoint x="300" y="339.2" as="targetPoint" />
            <mxPoint x="430" y="339.2" as="sourcePoint" />
            <mxPoint as="offset" />
            <Array as="points">
              <mxPoint x="365" y="339.2" />
            </Array>
          </mxGeometry>
        </mxCell>
        <mxCell id="ujmmGsmacbDu9rMizDgE-2" value="Следующий&lt;br&gt;вопрос" style="html=1;verticalAlign=bottom;endArrow=open;endSize=8;labelBackgroundColor=none;fontFamily=Verdana;fontSize=12;" parent="1" source="ra7D6F-EsMwKTzDDRDKf-21" target="ra7D6F-EsMwKTzDDRDKf-5" edge="1">
          <mxGeometry relative="1" as="geometry">
            <mxPoint x="150" y="349" as="targetPoint" />
            <mxPoint x="280" y="349" as="sourcePoint" />
            <mxPoint as="offset" />
            <Array as="points">
              <mxPoint x="220" y="360" />
            </Array>
          </mxGeometry>
        </mxCell>
      </root>
    </mxGraphModel>
  </diagram>
</mxfile>
